<?xml version="1.0" standalone="no"?>
<!DOCTYPE svg PUBLIC "-//W3C//DTD SVG 20010904//EN"
 "http://www.w3.org/TR/2001/REC-SVG-20010904/DTD/svg10.dtd">
<svg version="1.0" xmlns="http://www.w3.org/2000/svg"
 width="513.000000pt" height="98.000000pt" viewBox="0 0 513.000000 98.000000"
 preserveAspectRatio="xMidYMid meet">
<metadata>
Created by potrace 1.14, written by Peter Selinger 2001-2017
</metadata>
<g transform="translate(0.000000,98.000000) scale(0.100000,-0.100000)"
fill="#000000" stroke="none">
<path d="M122 868 c-17 -17 -17 -439 0 -456 8 -8 52 -12 131 -12 l118 0 -3
-32 c-3 -32 -5 -33 -53 -36 -45 -3 -64 -13 -65 -34 0 -5 94 -8 209 -8 202 0
209 1 204 20 -4 15 -15 20 -57 22 -50 3 -51 4 -54 36 l-3 32 124 0 c94 0 127
3 136 14 8 9 11 81 9 237 l-3 224 -340 3 c-257 2 -344 -1 -353 -10z m668 -224
l0 -204 -325 0 -325 0 0 205 0 205 325 -1 325 -1 0 -204z"/>
<path d="M275 770 c-3 -11 -10 -20 -14 -20 -15 0 -29 -46 -42 -137 -14 -101
-8 -123 36 -123 24 0 69 45 80 81 7 19 8 20 26 3 16 -14 24 -15 44 -6 14 6 25
16 25 22 0 19 52 10 70 -12 16 -20 21 -21 45 -10 24 11 29 10 41 -5 7 -10 14
-21 14 -25 0 -18 42 -48 65 -48 41 0 49 32 31 137 -19 118 -50 166 -105 161
-25 -2 -39 -9 -45 -24 -8 -18 -19 -21 -88 -22 -66 -1 -80 2 -85 16 -9 24 -23
32 -60 32 -23 0 -33 -5 -38 -20z"/>
<path d="M940 525 l0 -355 70 0 70 0 0 222 0 223 223 -223 c181 -181 227 -222
250 -222 l27 0 0 355 0 355 -70 0 -70 0 0 -220 c0 -121 -3 -220 -8 -220 -4 0
-106 99 -227 220 -157 157 -226 220 -242 220 l-23 0 0 -355z"/>
<path d="M1730 525 l0 -355 260 0 260 0 0 65 0 65 -190 0 -190 0 0 85 0 85
140 0 140 0 0 60 0 60 -140 0 -140 0 0 80 0 80 190 0 190 0 0 65 0 65 -260 0
-260 0 0 -355z"/>
<path d="M2360 815 l0 -65 120 0 120 0 0 -290 0 -290 70 0 70 0 0 290 0 290
120 0 120 0 0 65 0 65 -310 0 -310 0 0 -65z"/>
<path d="M3250 871 c-56 -18 -110 -52 -139 -88 -54 -65 -54 -166 0 -227 35
-40 87 -63 189 -82 41 -8 84 -21 97 -29 47 -31 38 -103 -17 -133 -48 -25 -172
-4 -232 40 -15 11 -24 6 -63 -32 -52 -51 -49 -58 33 -103 101 -54 247 -60 338
-14 87 45 124 99 124 183 0 118 -68 176 -254 214 -60 12 -106 45 -106 74 0 8
11 27 23 42 20 23 34 28 83 32 49 3 68 -1 109 -22 l50 -26 42 42 c41 40 42 43
25 61 -37 41 -112 69 -197 73 -44 2 -91 0 -105 -5z"/>
<path d="M3913 859 c-79 -25 -161 -97 -200 -177 -25 -51 -28 -68 -28 -157 0
-89 3 -106 28 -157 110 -225 421 -266 590 -79 63 70 81 121 81 236 1 82 -3
108 -20 146 -78 168 -267 247 -451 188z m192 -120 c24 -7 56 -27 80 -53 138
-142 43 -386 -150 -386 -123 0 -214 95 -215 223 0 161 129 259 285 216z"/>
<path d="M4727 869 c-91 -21 -185 -97 -226 -183 -31 -62 -43 -148 -31 -219 33
-204 221 -329 432 -288 60 12 148 52 167 75 6 7 -6 29 -34 60 l-42 49 -49 -23
c-168 -82 -335 9 -336 184 0 73 10 102 52 149 62 71 182 87 284 37 l49 -23 42
49 c24 27 41 52 38 56 -10 17 -96 61 -145 74 -59 15 -143 17 -201 3z"/>
<path d="M89 253 c-6 -16 -13 -40 -16 -55 l-5 -28 391 0 c215 0 391 3 391 8 0
23 -36 102 -47 102 -11 0 -10 -7 2 -36 8 -20 15 -40 15 -45 0 -5 -160 -9 -360
-9 -336 0 -360 1 -360 18 0 9 7 29 14 45 13 24 13 27 0 27 -8 0 -19 -12 -25
-27z"/>
</g>
</svg>
